<svg width="86" height="86" viewBox="0 0 86 86" fill="none" xmlns="http://www.w3.org/2000/svg">
<path d="M66.3333 26.9167V37.6308C66.3333 37.6308 59.2025 37.6667 59.1667 37.6308V26.9167H48.4167C48.4167 26.9167 48.4525 19.7858 48.4167 19.75H59.1667V9H66.3333V19.75H77.0833V26.9167H66.3333ZM55.5833 41.25V30.5H44.8333V19.75H16.1667C12.225 19.75 9 22.975 9 26.9167V69.9167C9 73.8583 12.225 77.0833 16.1667 77.0833H59.1667C63.1083 77.0833 66.3333 73.8583 66.3333 69.9167V41.25H55.5833ZM16.1667 69.9167L26.9167 55.5833L34.0833 66.3333L44.8333 52L59.1667 69.9167H16.1667Z" fill="#B7B7B7"/>
</svg>
