<svg width="46" height="46" viewBox="0 0 46 46" fill="none" xmlns="http://www.w3.org/2000/svg">
<path opacity="1" d="M23 5.75C20.7347 5.75 18.4916 6.19618 16.3987 7.06308C14.3058 7.92997 12.4042 9.2006 10.8024 10.8024C9.2006 12.4042 7.92997 14.3058 7.06308 16.3987C6.19618 18.4916 5.75 20.7347 5.75 23C5.75 25.2653 6.19618 27.5084 7.06308 29.6013C7.92997 31.6942 9.2006 33.5958 10.8024 35.1976C12.4042 36.7994 14.3058 38.07 16.3987 38.9369C18.4916 39.8038 20.7347 40.25 23 40.25C25.2653 40.25 27.5084 39.8038 29.6013 38.9369C31.6942 38.07 33.5958 36.7994 35.1976 35.1976C36.7994 33.5958 38.07 31.6942 38.9369 29.6013C39.8038 27.5084 40.25 25.2653 40.25 23C40.25 20.7347 39.8038 18.4916 38.9369 16.3987C38.07 14.3058 36.7994 12.4042 35.1976 10.8024C33.5958 9.2006 31.6942 7.92997 29.6013 7.06308C27.5084 6.19618 25.2653 5.75 23 5.75Z" fill="#FFF"/>
<path d="M23 42.1667C12.4584 42.1667 3.83337 33.5417 3.83337 23C3.83337 12.4583 12.4584 3.83333 23 3.83333C33.5417 3.83333 42.1667 12.4583 42.1667 23C42.1667 33.5417 33.5417 42.1667 23 42.1667ZM23 7.66666C14.5667 7.66666 7.66671 14.5667 7.66671 23C7.66671 31.4333 14.5667 38.3333 23 38.3333C31.4334 38.3333 38.3334 31.4333 38.3334 23C38.3334 14.5667 31.4334 7.66666 23 7.66666Z" fill="#FF0000"/>
<path d="M13.9193 16.6302L16.6298 13.9196L31.9449 29.2341L29.2343 31.9447L13.9193 16.6302Z" fill="#FF0000"/>
<path d="M13.9194 29.37L29.2339 14.055L31.9445 16.7655L16.63 32.0805L13.9194 29.37Z" fill="#FF0000"/>
</svg>
